<svg width="64" height="64" viewBox="0 0 64 64" fill="none" xmlns="http://www.w3.org/2000/svg">
  <path d="M39 19C36.5 15 31.5 13.8 27 15.8C21 18.4 18.8 25.6 21.8 31.1C24.2 35.5 29.1 38 33.6 36.9C36.6 36.1 39 33.9 39.9 31.1C41 27.9 40 24.5 37.4 22.1C35.1 20.1 31.6 19.4 28.7 20.9C25.2 22.7 24 26.9 25.9 30.1C27.4 32.8 31.2 34 34 32.4C36.4 31 37.1 28 35.4 25.9" stroke="#FFFFFF" stroke-width="3" stroke-linecap="round" stroke-linejoin="round"/>
  <circle cx="45" cy="18" r="2.5" fill="#FFFFFF"/>
</svg>
