<svg width="64" height="64" viewBox="0 0 64 64" fill="none" xmlns="http://www.w3.org/2000/svg">
  <path d="M12 23C16 19 20 19 24 23C28 27 32 27 36 23C40 19 44 19 48 23C51 26 53 26 55 25" stroke="#FFFFFF" stroke-width="3" stroke-linecap="round" stroke-linejoin="round"/>
  <path d="M12 33C16 29 20 29 24 33C28 37 32 37 36 33C40 29 44 29 48 33C51 36 53 36 55 35" stroke="#FFFFFF" stroke-width="3" stroke-linecap="round" stroke-linejoin="round"/>
  <path d="M12 43C16 39 20 39 24 43C28 47 32 47 36 43C40 39 44 39 48 43C51 46 53 46 55 45" stroke="#FFFFFF" stroke-width="3" stroke-linecap="round" stroke-linejoin="round"/>
</svg>
