<svg width="64" height="64" viewBox="0 0 64 64" fill="none" xmlns="http://www.w3.org/2000/svg">
  <path d="M40 12C28.954 12 20 20.954 20 32C20 43.046 28.954 52 40 52C44.892 52 49.374 50.243 52.848 47.327C44.974 46.363 38.9 39.648 38.9 31.511C38.9 24.247 43.742 18.117 50.378 16.083C47.432 13.515 43.579 12 40 12Z" stroke="#FFFFFF" stroke-width="3" stroke-linejoin="round"/>
  <path d="M18 38C18 38 15 41.2 15 44C15 46.209 16.791 48 19 48C21.209 48 23 46.209 23 44C23 41.2 20 38 20 38H18Z" fill="#FFFFFF"/>
</svg>
