<svg width="220" height="180" viewBox="0 0 220 180" fill="none" xmlns="http://www.w3.org/2000/svg">
  <g fill="currentColor">
    <path d="M62 24C39.9086 24 22 41.9086 22 64V90C22 112.091 39.9086 130 62 130H72C77.5228 130 82 125.523 82 120V52C82 46.4772 77.5228 42 72 42H62C55.3726 42 50 47.3726 50 54V64C50 70.6274 55.3726 76 62 76H66V90H62C47.6406 90 36 78.3594 36 64C36 49.6406 47.6406 38 62 38H80C85.5228 38 90 33.5228 90 28C90 25.7909 88.2091 24 86 24H62Z"/>
    <path d="M158 24C135.909 24 118 41.9086 118 64V90C118 112.091 135.909 130 158 130H168C173.523 130 178 125.523 178 120V52C178 46.4772 173.523 42 168 42H158C151.373 42 146 47.3726 146 54V64C146 70.6274 151.373 76 158 76H162V90H158C143.641 90 132 78.3594 132 64C132 49.6406 143.641 38 158 38H176C181.523 38 186 33.5228 186 28C186 25.7909 184.209 24 182 24H158Z"/>
  </g>
</svg>
